<?xml version="1.0" encoding="UTF-8"?>
<!DOCTYPE svg PUBLIC "-//W3C//DTD SVG 1.1//EN" "http://www.w3.org/Graphics/SVG/1.1/DTD/svg11.dtd">
<svg xmlns="http://www.w3.org/2000/svg" version="1.1" width="50px" height="50px" style="shape-rendering:geometricPrecision; text-rendering:geometricPrecision; image-rendering:optimizeQuality; fill-rule:evenodd; clip-rule:evenodd" xmlns:xlink="http://www.w3.org/1999/xlink">
<g><path fill="#fabe05" stroke="#fabe05" stroke-width="0.5" d="M 20.04,0 c 2.97,0 5.95,0 8.92,0 c 0.06,1.05 1.47,0.91 2.13,0.61 c -0.07,0.49 0.04,0.93 0.36,1.32 c 4.26,3.45 6.08,9.25 5.5,14.59 c -0.48,2.67 -1.1,5.28 -1.86,7.84 c 0.58,0.4 1.19,0.43 1.84,0.09 c 2.11,-0.89 4.21,-1.77 6.32,-2.66 c 1.85,0.83 -1.74,3.21 -2.55,3.43 c -4.95,2.17 -8.73,0.97 -12.99,4.95 c -1.37,1.56 -1.75,2.4 -3.22,0.24 c -2.42,3.82 -5.17,5.46 -9.06,7.51 c -0.29,1.13 -0.5,2.28 -0.63,3.45 c -0.17,0.35 -0.42,0.61 -0.76,0.79 c -1.31,-3.05 -1.23,-6.06 -1.21,-9.29 c 0.09,-1.01 3.53,-7.19 0.9,-6.53 c -5,1.77 -11.14,4.27 -9.79,10.79 c -0.3,-0.13 -0.59,-0.26 -0.89,-0.39 c -1.33,-0.5 -1.72,-5.62 -3.05,-6.77 c 0,-2.98 0,-5.96 0,-8.94 c 0.65,-0.52 0.9,-1.2 0.76,-2.06 c 0.44,0.03 0.84,-0.09 1.19,-0.36 c 3.96,-4.3 8.6,-5.7 14.36,-5.27 c 2.65,0.53 5.19,1.25 7.62,2.14 c -0.02,-6.46 -5.31,-12.62 -12.23,-11.89 c 2.75,-1.28 5.53,-2.48 8.34,-3.59 Z"/></g>
<g><path fill="#0529ea" fill-opacity="0.996" stroke="#0529ea" stroke-width="0.5" stroke-opacity="0.996" d="M 31.09,0.61 c 6.29,2.22 9.57,3.85 13.7,9.41 c 0.16,0.57 0.51,0.94 1.07,1.12 c 0.14,0.22 0.29,0.43 0.43,0.64 c 0.12,1.56 0.07,3.1 -0.15,4.63 c -0.7,1.99 -1.67,3.79 -2.89,5.38 c -2.11,0.89 -4.21,1.77 -6.32,2.66 c -0.65,0.34 -1.26,0.31 -1.84,-0.09 c 0.76,-2.56 1.38,-5.17 1.86,-7.84 c 0.58,-5.34 -1.24,-11.14 -5.5,-14.59 c -0.32,-0.39 -0.43,-0.83 -0.36,-1.32 Z"/></g>
<g><path fill="#0636fc" fill-opacity="0.996" stroke="#0636fc" stroke-width="0.5" stroke-opacity="0.996" d="M 11.08,4.1 c 0.21,-0.17 0.42,-0.34 0.62,-0.51 c 6.92,-0.73 12.21,5.43 12.23,11.89 c -2.43,-0.89 -4.97,-1.61 -7.62,-2.14 c -5.76,-0.43 -10.4,0.97 -14.36,5.27 c -0.35,0.27 -0.75,0.39 -1.19,0.36 c 1.43,-5.73 4.5,-10.37 9.19,-13.93 c 0.65,-0.01 1.03,-0.32 1.13,-0.94 Z"/></g>
<g><path fill="#04178b" fill-opacity="0.996" stroke="#04178b" stroke-width="0.5" stroke-opacity="0.996" d="M 48.03,31.92 c 0.46,-0.08 0.91,-0.15 1.37,-0.22 c -0.14,2.26 -3.49,7.39 -4.92,9.39 c -1.6,1.93 -3.44,3.56 -5.52,4.88 c -0.41,0.07 -0.81,0.14 -1.21,0.2 c -0.25,0.16 -0.5,0.33 -0.74,0.51 c -0.38,0.12 -0.77,0.23 -1.15,0.35 c -1.27,-0.41 -2.56,-0.71 -3.88,-0.9 c -1.76,-1.42 -3.3,-3.03 -4.62,-4.84 c -0.32,-1.08 -2.39,-5.25 -0.92,-5.95 c 6.6,3.69 16.87,2.83 21.59,-3.42 Z"/></g>
<g><path fill="#052ff2" stroke="#052ff2" stroke-width="0.5" d="M 12.83,32.87 c -1.57,2.22 -0.38,5.71 -4.32,5.01 c -1.54,-0.24 -3.06,-0.49 -4.57,-0.75 c -1.35,-6.52 4.79,-9.02 9.79,-10.79 c 2.63,-0.66 -0.81,5.52 -0.9,6.53 Z"/></g>
<g><path fill="#061fb1" fill-opacity="0.988" stroke="#061fb1" stroke-width="0.5" stroke-opacity="0.988" d="M 12.83,32.87 c -0.02,3.23 -0.1,6.24 1.21,9.29 c 0.79,1.6 1.81,4.46 3.76,4.86 c 0.07,0.29 0.15,0.57 0.23,0.85 c 0.06,0.36 0.12,0.71 0.19,1.06 c -5.71,-1.01 -11.38,-5.82 -14.42,-10.64 c 0.05,-0.39 0.09,-0.78 0.14,-1.16 c 1.51,0.26 3.03,0.51 4.57,0.75 c 3.94,0.7 2.75,-2.79 4.32,-5.01 Z"/></g>
<g><path fill="#e4a806" stroke="#e4a806" stroke-width="0.5" d="M 46.29,11.78 c 1.66,2.28 2.7,4.82 3.12,7.62 c 0.11,0.3 0.3,0.52 0.59,0.65 c 0,2.64 0,5.28 0,7.92 c -0.94,0.2 -0.99,1.97 -1.27,2.71 c -0.36,0.34 -0.59,0.75 -0.7,1.24 c -4.72,6.25 -14.99,7.11 -21.59,3.42 c -1.47,0.7 0.6,4.87 0.92,5.95 c -0.56,0.54 -1.19,0.6 -1.89,0.18 c -1.34,0.28 -8.05,1.43 -8.14,3.01 c 0.36,0.81 0.52,1.66 0.47,2.54 c -1.95,-0.4 -2.97,-3.26 -3.76,-4.86 c 0.34,-0.18 0.59,-0.44 0.76,-0.79 c 0.13,-1.17 0.34,-2.32 0.63,-3.45 c 3.89,-2.05 6.64,-3.69 9.06,-7.51 c 1.47,2.16 1.85,1.32 3.22,-0.24 c 4.26,-3.98 8.04,-2.78 12.99,-4.95 c 0.81,-0.22 4.4,-2.6 2.55,-3.43 c 1.22,-1.59 2.19,-3.39 2.89,-5.38 c 0.22,-1.53 0.27,-3.07 0.15,-4.63 Z"/></g>
<g><path fill="#c69303" fill-opacity="0.996" stroke="#c69303" stroke-width="0.5" stroke-opacity="0.996" d="M 27.36,41.29 c 1.32,1.81 2.86,3.42 4.62,4.84 c -0.17,2.17 -8.69,-0.95 -10.35,3.56 c -0.49,0.08 -0.97,0.16 -1.46,0.24 c -0.16,-0.5 -0.47,-0.88 -0.95,-1.12 c -0.39,-0.33 -0.78,-0.64 -1.19,-0.94 c -0.08,-0.28 -0.16,-0.56 -0.23,-0.85 c 0.05,-0.88 -0.11,-1.73 -0.47,-2.54 c 0.09,-1.58 6.8,-2.73 8.14,-3.01 c 0.7,0.42 1.33,0.36 1.89,-0.18 Z"/></g>
<g><path fill="#ab8104" fill-opacity="0.969" d="M 31.98,46.13 c 1.32,0.19 2.61,0.49 3.88,0.9 c 0.01,0.23 0.03,0.45 0.04,0.68 c -1.66,0.68 -3.31,1.37 -4.95,2.06 c -3.11,-0.02 -6.21,-0.05 -9.32,-0.08 c 1.66,-4.51 10.18,-1.39 10.35,-3.56 Z"/></g>
<g><path fill="#736d98" fill-opacity="0.302" stroke="#736d98" stroke-width="0.5" stroke-opacity="0.302" d="M 11.08,4.1 c -0.1,0.62 -0.48,0.93 -1.13,0.94 c 0.11,-0.64 0.48,-0.96 1.13,-0.94 Z"/></g>
<g><path fill="#655e79" fill-opacity="0.255" stroke="#655e79" stroke-width="0.5" stroke-opacity="0.255" d="M 44.79,10.02 c 0.72,0.02 1.08,0.4 1.07,1.12 c -0.56,-0.18 -0.91,-0.55 -1.07,-1.12 Z"/></g>
<g><path fill="#9d8449" fill-opacity="0.573" d="M 3.05,36.74 c 0.3,0.13 0.59,0.26 0.89,0.39 c -0.05,0.38 -0.09,0.77 -0.14,1.16 c -0.44,-0.42 -0.68,-0.94 -0.75,-1.55 Z"/></g>
<g><path fill="#947a3a" fill-opacity="0.188" stroke="#947a3a" stroke-width="0.5" stroke-opacity="0.188" d="M 37.75,46.17 c 0.4,-0.06 0.8,-0.13 1.21,-0.2 c -0.03,0.64 -0.37,0.92 -1.03,0.84 c -0.06,-0.21 -0.12,-0.43 -0.18,-0.64 Z"/></g>
<g><path fill="#d29400" fill-opacity="0.29" d="M 35.86,47.03 c 0.38,-0.12 0.77,-0.23 1.15,-0.35 c -0.01,0.76 -0.38,1.1 -1.11,1.03 c -0.01,-0.23 -0.03,-0.45 -0.04,-0.68 Z"/></g>
<g><path fill="#61504e" fill-opacity="0.608" d="M 50,27.97 c 0,1.01 0,2.02 0,3.03 c -0.42,-0.11 -0.85,-0.21 -1.27,-0.32 c 0.28,-0.74 0.33,-2.51 1.27,-2.71 Z M 48.73,30.68 c 0.22,0.34 0.45,0.68 0.67,1.02 c -0.46,0.07 -0.91,0.14 -1.37,0.22 c 0.11,-0.49 0.34,-0.9 0.7,-1.24 Z"/></g>
<g><path fill="#2823af" fill-opacity="0.361" d="M 28.96,0 c 0.68,0 1.36,0 2.03,0 c 0.04,0.2 0.07,0.4 0.1,0.61 c -0.66,0.3 -2.07,0.44 -2.13,-0.61 Z"/></g>
<g><path fill="#655345" fill-opacity="0.722" d="M 37.75,46.17 c 0.06,0.21 0.12,0.43 0.18,0.64 c -0.3,-0.04 -0.61,-0.09 -0.92,-0.13 c 0.24,-0.18 0.49,-0.35 0.74,-0.51 Z"/></g>
<g><path fill="#3c344a" fill-opacity="0.992" d="M 18.03,47.87 c 0.41,0.3 0.8,0.61 1.19,0.94 c -0.33,0.04 -0.67,0.08 -1,0.12 c -0.07,-0.35 -0.13,-0.7 -0.19,-1.06 Z"/></g>
</svg>
